<svg aria-hidden="true" style="position: absolute; width: 0; height: 0; overflow: hidden;" version="1.1" xmlns="http://www.w3.org/2000/svg" xmlns:xlink="http://www.w3.org/1999/xlink">
<defs>
<symbol id="vk" viewBox="0 0 32 32">
<path fill="#fff" style="fill: var(--color1, #fff)" d="M31.271 7.605c0.22-0.743 0-1.289-1.057-1.289h-3.499c-0.891 0-1.301 0.469-1.521 0.992 0 0-1.782 4.343-4.301 7.158-0.814 0.814-1.188 1.075-1.634 1.075-0.22 0-0.558-0.261-0.558-1.004v-6.933c0-0.891-0.25-1.289-0.986-1.289h-5.501c-0.558 0-0.891 0.416-0.891 0.802 0 0.844 1.259 1.040 1.39 3.416v5.156c0 1.129-0.202 1.337-0.648 1.337-1.188 0-4.075-4.36-5.786-9.35-0.345-0.968-0.683-1.36-1.58-1.36h-3.499c-0.998 0-1.2 0.469-1.2 0.992 0 0.927 1.188 5.531 5.531 11.614 2.893 4.152 6.968 6.404 10.675 6.404 2.228 0 2.501-0.499 2.501-1.36 0-3.968-0.202-4.342 0.915-4.342 0.517 0 1.408 0.261 3.487 2.263 2.376 2.376 2.768 3.439 4.099 3.439h3.499c0.998 0 1.503-0.499 1.212-1.485-0.665-2.073-5.162-6.339-5.364-6.624-0.517-0.665-0.368-0.962 0-1.556 0.006-0.006 4.277-6.018 4.717-8.055z"></path>
</symbol>
<symbol id="twitter" viewBox="0 0 32 32">
<path fill="#fff" style="fill: var(--color1, #fff)" d="M28.711 9.425c0.020 0.284 0.020 0.569 0.020 0.853 0 8.67-6.599 18.66-18.66 18.66-3.716 0-7.168-1.076-10.071-2.944 0.528 0.061 1.036 0.081 1.584 0.081 3.066 0 5.888-1.036 8.142-2.802-2.883-0.061-5.3-1.949-6.132-4.548 0.406 0.061 0.812 0.101 1.239 0.101 0.589 0 1.178-0.081 1.726-0.223-3.005-0.609-5.259-3.249-5.259-6.437v-0.081c0.873 0.487 1.888 0.792 2.964 0.832-1.766-1.178-2.924-3.188-2.924-5.462 0-1.218 0.325-2.335 0.893-3.31 3.228 3.98 8.081 6.579 13.523 6.863-0.101-0.487-0.162-0.995-0.162-1.502 0-3.614 2.924-6.558 6.558-6.558 1.888 0 3.594 0.792 4.792 2.071 1.482-0.284 2.904-0.833 4.162-1.584-0.487 1.523-1.523 2.802-2.883 3.614 1.32-0.142 2.599-0.508 3.777-1.015-0.893 1.299-2.010 2.457-3.289 3.391z"></path>
</symbol>
<symbol id="gitHub" viewBox="0 0 32 32">
<path fill="#fff" style="fill: var(--color1, #fff)" d="M10.703 25.123c0 0.129-0.148 0.232-0.335 0.232-0.213 0.019-0.361-0.084-0.361-0.232 0-0.129 0.148-0.232 0.335-0.232 0.194-0.019 0.361 0.084 0.361 0.232zM8.697 24.832c-0.045 0.129 0.084 0.277 0.277 0.316 0.168 0.064 0.361 0 0.4-0.129s-0.084-0.277-0.277-0.335c-0.168-0.045-0.355 0.019-0.4 0.148zM11.548 24.723c-0.187 0.045-0.316 0.168-0.297 0.316 0.019 0.129 0.187 0.213 0.381 0.168 0.187-0.045 0.316-0.168 0.297-0.297-0.019-0.123-0.194-0.206-0.381-0.187zM15.794 0c-8.948 0-15.794 6.794-15.794 15.742 0 7.155 4.503 13.277 10.935 15.432 0.826 0.148 1.116-0.361 1.116-0.781 0-0.4-0.019-2.606-0.019-3.961 0 0-4.516 0.968-5.465-1.923 0 0-0.735-1.877-1.794-2.361 0 0-1.477-1.013 0.103-0.994 0 0 1.606 0.129 2.49 1.665 1.413 2.49 3.781 1.774 4.703 1.348 0.148-1.032 0.568-1.748 1.032-2.174-3.606-0.4-7.245-0.923-7.245-7.129 0-1.774 0.49-2.665 1.523-3.8-0.168-0.419-0.716-2.148 0.168-4.381 1.348-0.419 4.452 1.742 4.452 1.742 1.29-0.361 2.677-0.548 4.052-0.548s2.761 0.187 4.052 0.548c0 0 3.103-2.168 4.452-1.742 0.884 2.239 0.335 3.961 0.168 4.381 1.032 1.142 1.665 2.032 1.665 3.8 0 6.226-3.8 6.723-7.406 7.129 0.594 0.51 1.097 1.477 1.097 2.994 0 2.174-0.019 4.864-0.019 5.394 0 0.419 0.297 0.929 1.116 0.781 6.452-2.142 10.826-8.264 10.826-15.419 0-8.948-7.258-15.742-16.206-15.742zM6.271 22.252c-0.084 0.064-0.064 0.213 0.045 0.335 0.103 0.103 0.252 0.148 0.335 0.064 0.084-0.064 0.064-0.213-0.045-0.335-0.103-0.103-0.252-0.148-0.335-0.064zM5.574 21.729c-0.045 0.084 0.019 0.187 0.148 0.252 0.103 0.064 0.232 0.045 0.277-0.045 0.045-0.084-0.019-0.187-0.148-0.252-0.129-0.039-0.232-0.019-0.277 0.045zM7.665 24.026c-0.103 0.084-0.064 0.277 0.084 0.4 0.148 0.148 0.336 0.168 0.419 0.065 0.084-0.084 0.045-0.277-0.084-0.4-0.142-0.148-0.335-0.168-0.419-0.065zM6.929 23.077c-0.103 0.065-0.103 0.232 0 0.381s0.277 0.213 0.361 0.148c0.103-0.084 0.103-0.252 0-0.4-0.090-0.148-0.258-0.213-0.361-0.129z"></path>
</symbol>
<symbol id="instagram" viewBox="0 0 32 32">
<path fill="#fff" style="fill: var(--color1, #fff)" d="M16.004 7.794c-4.54 0-8.203 3.662-8.203 8.203s3.662 8.203 8.203 8.203c4.54 0 8.203-3.662 8.203-8.203s-3.662-8.203-8.203-8.203zM16.004 21.329c-2.934 0-5.333-2.392-5.333-5.333s2.392-5.333 5.333-5.333c2.941 0 5.333 2.392 5.333 5.333s-2.399 5.333-5.333 5.333zM26.455 7.458c0 1.064-0.857 1.913-1.913 1.913-1.064 0-1.913-0.857-1.913-1.913s0.857-1.913 1.913-1.913c1.057 0 1.913 0.857 1.913 1.913zM31.888 9.4c-0.121-2.563-0.707-4.833-2.584-6.703-1.87-1.87-4.141-2.456-6.703-2.584-2.641-0.15-10.558-0.15-13.2 0-2.556 0.121-4.826 0.707-6.703 2.577s-2.456 4.141-2.584 6.703c-0.15 2.641-0.15 10.558 0 13.2 0.121 2.563 0.707 4.833 2.584 6.703s4.141 2.456 6.703 2.584c2.641 0.15 10.558 0.15 13.2 0 2.563-0.121 4.833-0.707 6.703-2.584 1.87-1.87 2.456-4.141 2.584-6.703 0.15-2.641 0.15-10.551 0-13.193zM28.475 25.427c-0.557 1.399-1.635 2.477-3.041 3.041-2.106 0.835-7.103 0.643-9.43 0.643s-7.332 0.186-9.43-0.643c-1.399-0.557-2.477-1.635-3.041-3.041-0.835-2.106-0.643-7.103-0.643-9.43s-0.186-7.332 0.643-9.43c0.557-1.399 1.635-2.477 3.041-3.041 2.106-0.835 7.103-0.643 9.43-0.643s7.332-0.186 9.43 0.643c1.399 0.557 2.477 1.635 3.041 3.041 0.835 2.106 0.642 7.103 0.642 9.43s0.193 7.332-0.642 9.43z"></path>
</symbol>
<symbol id="linkedIn" viewBox="0 0 32 32">
<path fill="#fff" style="fill: var(--color1, #fff)" d="M29.714 0h-27.436c-1.257 0-2.279 1.036-2.279 2.307v27.386c0 1.271 1.021 2.307 2.279 2.307h27.436c1.257 0 2.286-1.036 2.286-2.307v-27.386c0-1.271-1.029-2.307-2.286-2.307zM9.671 27.429h-4.743v-15.271h4.75v15.271h-0.007zM7.3 10.071c-1.521 0-2.75-1.236-2.75-2.75s1.229-2.75 2.75-2.75c1.514 0 2.75 1.236 2.75 2.75 0 1.521-1.229 2.75-2.75 2.75zM27.45 27.429h-4.743v-7.429c0-1.771-0.036-4.050-2.464-4.050-2.471 0-2.85 1.929-2.85 3.921v7.557h-4.743v-15.271h4.55v2.086h0.064c0.636-1.2 2.186-2.464 4.493-2.464 4.8 0 5.693 3.164 5.693 7.279v8.371z"></path>
</symbol>
<symbol id="menu" viewBox="0 0 32 32">
<path d="M2 6h28v6h-28zM2 14h28v6h-28zM2 22h28v6h-28z"></path>
</symbol>
<symbol id="cross" viewBox="0 0 32 32">
<path d="M31.708 25.708c-0-0-0-0-0-0l-9.708-9.708 9.708-9.708c0-0 0-0 0-0 0.105-0.105 0.18-0.227 0.229-0.357 0.133-0.356 0.057-0.771-0.229-1.057l-4.586-4.586c-0.286-0.286-0.702-0.361-1.057-0.229-0.13 0.048-0.252 0.124-0.357 0.228 0 0-0 0-0 0l-9.708 9.708-9.708-9.708c-0-0-0-0-0-0-0.105-0.104-0.227-0.18-0.357-0.228-0.356-0.133-0.771-0.057-1.057 0.229l-4.586 4.586c-0.286 0.286-0.361 0.702-0.229 1.057 0.049 0.13 0.124 0.252 0.229 0.357 0 0 0 0 0 0l9.708 9.708-9.708 9.708c-0 0-0 0-0 0-0.104 0.105-0.18 0.227-0.229 0.357-0.133 0.355-0.057 0.771 0.229 1.057l4.586 4.586c0.286 0.286 0.702 0.361 1.057 0.229 0.13-0.049 0.252-0.124 0.357-0.229 0-0 0-0 0-0l9.708-9.708 9.708 9.708c0 0 0 0 0 0 0.105 0.105 0.227 0.18 0.357 0.229 0.356 0.133 0.771 0.057 1.057-0.229l4.586-4.586c0.286-0.286 0.362-0.702 0.229-1.057-0.049-0.13-0.124-0.252-0.229-0.357z"></path>
</symbol>
</defs>
</svg>
